<svg xmlns="http://www.w3.org/2000/svg" xmlns:xlink="http://www.w3.org/1999/xlink" width="1190px" height="200px" viewBox="0 0 1190 200" preserveAspectRatio="xMidYMid meet"><path id="svgEditorBackground" width="1190" height="200" style="fill: none; stroke: none;" d="M0 0 L1190 0 L1190 200 L0 200 Z" class="psUAwhLC_0"></path><path d="M2,169l1,0l1,0l3,0l5,0l3,0l2,1l1,0l0,-1l1,0l1,0l2,-1l2,-1l3,-1l2,0l1,-1l3,-1l3,-2l4,0l5,-1l4,0l3,-1l2,-1l1,-1l3,-1l3,-1l3,-1l2,-1l2,0l2,-1l1,-1l2,-1l2,0l1,-1l1,-1l1,0l1,0l0,-1l1,0l0,-1l1,0l0,1l1,2l1,1l1,2l1,1l1,0l0,1l0,1l1,0l0,1l2,1l1,2l1,1l2,0l2,2l2,1l3,1l2,0l2,1l3,0l3,1l2,1l1,0l2,0l2,-1l2,0l2,0l2,-1l2,0l2,0l2,-1l2,-1l3,-1l2,0l2,0l3,-1l2,-1l2,-1l3,0l1,-1l3,-1l2,0l3,-1l2,-2l2,0l2,-1l3,-1l2,-2l3,-1l2,-1l3,-2l2,-1l3,-1l2,0l2,-1l1,-1l1,0l1,0l1,-1l1,0l1,0l3,0l3,0l2,0l2,0l2,1l1,0l2,1l1,0l1,1l1,0l0,2l1,1l1,0l1,2l2,1l0,1l1,0l0,1l0,1l0,1l0,1l0,1l0,1l0,1l-1,0l0,1l0,1l-1,0l-1,0l0,-1l-1,-1l-1,-1l-1,0l-1,0l0,1l0,1l0,1l0,1l1,0l0,1l0,1l1,0l1,1l1,1l2,2l2,0l3,1l3,1l3,1l2,0l2,0l2,0l2,-1l2,0l2,-1l3,0l3,-1l3,-1l3,0l2,-1l3,-1l3,-1l3,-2l4,-2l4,-1l2,-1l1,-1l2,-1l2,-1l3,-1l3,-1l4,0l3,-1l3,0l2,0l3,0l3,0l4,0l3,0l4,0l2,0l2,0l2,0l1,0l1,0l3,0l2,0l2,1l2,1l2,0l0,1l1,0l0,1l2,0l0,1l0,1l1,0l2,1l2,0l2,0l1,0l2,0l1,0l1,-1l0,-1l1,0l0,-1l1,-1l0,-1l1,-1l1,0l0,1l1,1l2,4l1,1l3,2l2,1l2,1l2,1l3,0l4,1l3,0l4,0l3,0l2,-1l2,0l2,0l4,0l3,-1l4,0l4,0l3,0l3,-1l3,-1l2,0l4,-1l3,-1l2,-1l2,-1l2,0l3,-1l2,0l3,-1l1,-1l3,0l2,-1l2,-1l2,0l1,-1l1,0l1,0l1,1l1,0l2,2l3,2l2,1l3,2l3,1l4,1l5,0l4,0l3,0l1,0l1,0l1,0l1,0l1,-1l1,-1l1,0l1,0l2,1l1,1l1,0l1,1l3,1l2,1l4,0l2,0l1,0l3,-1l4,-1l5,-1l2,-1l1,0l1,-1l1,0l2,-2l2,-2l3,-1l2,-2l3,-2l4,-2l5,-1l4,-2l2,-1l2,0l3,-1l2,0l2,-1l2,-1l2,0l2,0l1,0l1,0l1,0l10,3l1,0l1,1l1,1l2,0l3,1l3,1l3,2l2,0l1,1l2,1l3,2l3,1l4,2l4,2l4,1l3,2l3,1l3,1l2,1l3,1l3,0l1,0l2,0l3,0l2,0l3,0l3,0l2,0l3,-1l2,-1l4,-1l3,-1l2,-1l1,-1l2,0l2,-1l2,0l2,-1l2,-1l3,-1l2,0l0,-1l2,0l0,-1l1,0l1,0l1,0l1,0l1,1l1,1l1,0l1,0l0,1l1,0l1,0l1,0l1,0l1,1l1,0l1,0l1,0l3,0l3,0l2,0l1,-1l1,0l1,-1l1,0l1,-1l2,0l1,-1l2,-1l1,0l1,-1l1,-1l2,-1l1,-1l1,0l2,-1l1,0l2,-1l2,0l3,-1l2,0l2,-1l3,0l2,0l3,0l4,0l4,0l4,1l3,1l2,0l1,1l1,0l1,1l1,1l2,0l1,1l1,1l1,1l1,1l2,1l0,2l1,1l1,2l1,1l0,2l0,2l1,1l0,1l0,1l0,1l-1,1l-1,1l-2,1l-1,0l0,1l1,0l1,0l1,0l1,-1l1,0l0,-1l1,0l1,-1l2,0l0,-1l1,-1l1,-1l2,-1l1,-1l1,-1l0,-1l1,-1l2,-1l1,-1l1,-1l0,-1l1,-1l2,-1l1,-1l1,-1l1,0l3,-1l1,-1l2,-1l2,0l1,-1l3,0l2,0l2,0l1,0l2,0l2,0l3,1l2,0l2,1l3,0l1,1l2,0l2,1l1,0l1,0l1,0l2,0l1,1l2,0l2,0l2,0l3,0l3,0l2,0l3,0l1,0l1,0l3,-1l2,0l1,-1l2,0l2,-1l1,-1l2,0l1,-1l2,-1l2,-1l1,0l1,-1l1,0l1,0l1,-1l1,0l3,-1l3,0l2,0l1,0l1,0l1,0l1,0l0,1l1,0l0,2l1,1l1,2l1,1l1,1l1,0l1,0l4,-1l3,-1l3,0l3,0l2,0l1,0l1,0l1,0l0,1l1,0l1,0l2,0l1,0l2,1l1,0l1,1l2,0l3,1l2,1l2,0l1,1l1,0l1,0l3,0l1,0l3,0l2,-1l1,0l2,-1l2,0l2,-1l2,-1l2,-1l2,-1l1,-1l1,-1l2,0l0,-1l1,0l2,-1l1,0l3,-1l2,0l4,0l3,0l4,-1l3,0l1,0l2,-1l2,0l1,0l1,0l1,0l2,-1l1,0l1,0l1,1l1,0l2,2l3,1l3,1l3,1l3,1l1,0l2,0l2,0l2,0l1,0l1,0l0,1l1,0l2,0l2,1l4,1l2,0l1,1l1,0l1,0l3,1l2,0l2,0l1,0l1,0l1,-1l1,-1l1,-1l2,0l0,-1l1,-1l1,0l1,-1l0,-1l1,-1l1,0l0,-1l0,-1l0,-1l1,0l0,-1l0,-1l1,0l0,-1l0,1l1,1l1,1l3,2l2,2l1,2l1,0l0,1l1,0l1,0l1,1l1,0l1,0l3,0l2,0l1,0l2,0l1,0l1,0l2,-1l2,0l1,0l1,-1l1,0l1,0l2,-1l2,0l1,-1l2,-1l2,-1l3,-1l1,-1l1,0l1,-1l1,0l1,-1l2,-1l1,0l1,-1l1,-1l2,-1l1,0l2,0l1,0l1,0l2,0l2,0l1,0l1,1l0,1l0,1l1,1l0,2l1,2l0,1l0,1l1,1l0,1l1,1l0,2l1,1l1,0l0,1l1,0l1,1l1,0l2,1l1,1l2,0l0,1l1,0l1,0l1,0l1,0l1,0l1,0l2,-1l1,0l0,-1l1,-1l1,-1l2,-1l1,0l0,-1l0,-1l2,-1l1,-1l0,-1l1,0l1,0l1,-2l3,-1l1,0l2,-1l1,-1l1,0l1,0l1,-1l2,0l2,0l1,-1l1,0l1,0l2,0l1,0l2,0l2,-1l2,0l1,0l2,0l1,0l1,0" stroke="black" id="e7691_freepath" style="fill: none; stroke-width: 1px;" class="psUAwhLC_1"></path><path d="M90,45l1,0l1,0l3,-1l2,0l2,0l1,-1l1,0l1,0l1,-1l1,0l3,-1l2,0l1,-1l2,0l1,0l1,0l1,0l2,-1l2,0l1,0l2,-1l1,0l1,-1l2,0l1,-1l2,-1l1,0l1,-1l2,-1l2,-1l1,0l0,-1l1,0l1,-1l0,-1l1,0l1,-1l1,0l0,-1l1,0l1,-1l2,0l2,-1l1,-1l1,0l0,1l1,1l2,2l0,1l0,1l1,0l0,2l1,1l1,1l0,1l1,1l0,1l1,1l0,1l0,1l1,1l0,1l0,1l1,2l1,1l1,1l0,2l1,1l0,1l1,1l0,1l0,1l1,1l1,2l0,1l0,2l1,0l0,1l0,1l1,1l0,2l1,1l0,3l1,2l1,2l0,1l0,1l1,1l0,1l0,1l1,1l0,1l0,2l1,3l0,1l0,1l0,1l0,1l1,0l0,1l0,1l0,1l0,1l0,2l1,1l-1,0l0,1l-1,0l-1,0l0,1l-1,1l-2,1l-1,1l-1,1l-1,0l-2,1l0,1l-2,0l-1,1l-1,1l-2,0l-1,1l-1,1l-1,0l-1,1l-2,1l-1,1l-1,0l-1,1l-2,0l-2,1l0,1l-2,0l-1,0l-1,1l-1,0l-1,1l-2,0l-1,1l-1,0l0,1l-1,0l-2,1l-2,1l-1,0l-2,0l0,1l-1,0l-1,0l-2,1l-3,1l-2,0l-1,1l-1,0l-1,1l-1,0l0,1l-1,0l-1,0l-1,1l-1,0l-1,0l-1,0l0,1l-1,0l-2,0l-1,1l-1,0l-1,0l-1,0l0,-1l0,-1l0,-1l1,0l0,-1l0,-1l0,-1l0,-1l1,-1l0,-1l0,-1l1,0l0,-1l1,-1l0,-1l0,-1l0,-1l1,-1l0,-1l0,-1l1,-2l0,-1l0,-1l0,-1l0,-1l0,-1l0,-2l0,-2l0,-1l0,-1l0,-1l0,-1l0,-1l0,-1l0,-1l-1,-2l0,-2l0,-2l0,-2l-1,-2l0,-1l0,-2l0,-1l-1,-5l0,-1l0,-1l0,-1l-1,-1l0,-1l-1,-1l0,-1l0,-1l-1,0l0,-1l0,-2l-1,-1l0,-1l0,-1l0,-1l-1,0l-1,-1l0,-2l0,-1l-1,-1l0,-1l-1,0l0,-1l-1,0l0,-1l0,-1l-1,0l0,-1l-1,0l0,-1l0,-1l0,-1l0,-1" stroke="black" id="e8436_freepath" style="fill: none; stroke-width: 1px;" class="psUAwhLC_2"></path><path d="M153,31l0,-1l0,-1l0,-1l1,-1l0,-1l0,-1l1,0l0,-1l0,-1l0,-1l0,-1l0,-1l0,-1l1,0l1,0l1,0l1,0l2,0l3,0l2,0l0,1l1,0l1,0l1,0l1,0l1,0l3,0l1,0l1,0l2,0l1,0l1,-1l1,0l1,0l1,0l2,-1l1,0l1,-1l2,0l2,-1l1,-1l2,0l2,-1l1,0l1,0l0,-1l1,0l0,-1l1,0l1,-1l0,-1l1,0l1,0l0,-1l1,0l1,-1l0,-1l1,0" stroke="black" id="e8699_freepath" style="fill: none; stroke-width: 1px;" class="psUAwhLC_3"></path><path d="M209,33l1,0l1,0l2,0l3,-1l2,0l2,-1l2,-1l1,0l1,0l2,-1l2,0l2,0l2,-1l1,0l1,0l1,-1l1,0l1,0l1,-1l3,0l4,-1l3,-1l2,0l1,0l1,0l1,0l1,0l2,0l2,-1l2,0l1,0l1,0l1,0l0,1l0,1l1,1l0,1l1,1l1,1l0,1l0,1l1,0l0,2l1,1l1,1l0,1l0,1l0,1l1,1l0,2l0,2l1,1l0,1l1,2l0,1l1,1l0,1l0,2l0,1l1,2l0,1l0,1l1,2l0,1l0,1l1,0l0,1l0,2l1,2l0,2l0,1l1,2l0,1l0,2l0,1l0,1l0,1l0,1l1,2l0,1l0,1l1,1l0,2l0,1l0,1l0,1l0,1l1,0l0,1l0,1l0,1l0,1l0,1l-1,0l-1,0l-1,0l-1,0l0,1l-1,0l-1,0l-1,0l-2,0l-4,0l-4,0l-4,0l-2,0l-1,0l-1,0l-3,0l-4,0l-3,-1l-2,0l-1,0l0,-1l-1,0l-1,0l-2,0l-2,0l-2,0l-2,0l-1,0l-1,0l-1,0l-1,0l-1,0l-1,0l-1,0l-1,0l-1,1l-2,0l-2,0l-1,0l0,-1l0,-2l-1,-2l0,-1l0,-1l0,-1l0,-2l0,-1l0,-2l0,-1l0,-2l0,-1l0,-1l0,-1l0,-1l-1,-1l0,-1l0,-1l0,-1l0,-1l0,-2l-1,-1l0,-2l-1,-2l0,-1l0,-1l0,-1l0,-1l-1,-1l0,-1l0,-1l-1,-1l0,-2l0,-1l-1,-1l0,-1l0,-1l0,-1l-1,-1l-1,-2l0,-1l0,-1l-1,-1l0,-1l0,-1l0,-1l0,-1l0,-1l0,-1l0,-1l0,-1" stroke="black" id="e8773_freepath" style="fill: none; stroke-width: 1px;" class="psUAwhLC_4"></path><path d="M209,7l1,0l1,0l0,1l1,1l0,1l0,1l1,1l0,1l0,1l1,0l0,1l0,1l0,1l1,1l0,1l0,1l0,1l1,1l0,1l0,1l0,1l0,1l0,1" stroke="black" id="e8972_freepath" style="fill: none; stroke-width: 1px;" class="psUAwhLC_5"></path><path d="M166,101l1,0l1,0l1,0l1,0l1,0l1,0l1,0l1,0l2,0l6,0l5,1l3,1l1,0l1,0l1,0l1,0l1,0l2,1l2,0l3,1l1,0l2,0l1,0l1,0l1,0l2,0l3,1l2,0l1,0l1,0l1,0l1,0l0,1l1,0l1,0l0,1l1,0l1,0l1,0l1,0l0,-1l1,-1l0,-2l0,-1l0,-1l0,-1l0,-1l0,-1l0,-1l0,-1l0,-1l0,-1l-1,-1l0,-1l0,-1" stroke="black" id="e9011_freepath" style="fill: none; stroke-width: 1px;" class="psUAwhLC_6"></path><path d="M96,138l1,0l1,0l1,0l0,1l1,0l1,0l1,0l1,0l2,-1l1,0l1,0l1,0l1,0l1,-1l1,0l1,0l0,-1l1,0l2,0l1,-1l1,0l1,0l1,0l1,0l2,-1l3,0l2,0l1,0l1,0l1,0l1,0l1,0l1,0l2,0l1,0l1,0l0,-1l1,0l1,0l1,0l2,0l1,-1l2,0l1,0l1,0l3,-1l1,0l1,0l1,0l1,-1l2,0l2,0l1,0l1,0l1,0l1,-1l2,0l1,0l2,0l2,0l1,0l1,0l2,-1l1,0l2,0l2,-1l1,0l1,0l2,-1l1,0l1,0l2,-1l2,0l2,-1l1,0l2,0l1,-1l1,0l1,0l0,-1l2,0l1,0l1,0l1,0l2,-1l1,0l1,0l1,0l1,0l2,0l1,0l1,0l1,0l0,-1l2,0l2,0l3,0l2,0l3,-1l1,0l2,0l3,0l3,0l1,0l1,0l1,0l1,0l1,0l2,0l0,-1l2,0l1,0l2,0l1,-1l1,0l1,0l2,-1l2,-1l1,0l1,0l1,0l1,0l2,0l2,0l1,-1l1,0l1,0l1,-1l1,0l1,0l1,0l0,-1l1,0l1,0l1,0l1,0l0,1l1,0l0,1l1,0l0,1l0,1l0,1l1,0l-1,0" stroke="black" id="e9082_freepath" style="fill: none; stroke-width: 1px;" class="psUAwhLC_7"></path><path d="M98,137l0,1l0,1l-1,2l-1,1l0,1l0,1l0,1l1,0l1,0l1,0l1,0l1,0l1,0l1,0l1,0l3,-1l2,0l2,-1l1,0l1,0l1,-1l1,0l1,0l2,0l1,0l0,-1l3,0l1,0l1,0l1,0l2,0l1,0l2,0l1,0l1,0l1,0l1,0l1,0l2,0l1,0l1,0l1,0l1,0l1,-1l1,0l1,0l3,0l2,0l1,0l1,0l0,-1l2,0l2,0l2,0l1,0l1,0l2,-1l2,0l2,0l1,0l1,0l1,0l2,0l2,-1l3,0l2,0l2,0l1,-1l1,0l1,0l1,0l2,0l1,-1l2,0l1,0l1,-1l2,0l2,0l1,0l1,0l1,0l0,-1l1,0l1,0l1,0l1,0l2,0l1,0l1,0l1,0l1,0l2,-1l1,0l2,0l1,0l1,0l1,0l1,0l2,-1l2,0l3,0l2,0l2,0l1,0l2,-1l2,0l2,0l1,-1l1,0l2,0l1,0l1,0l2,-1l1,0l2,0l1,0l1,0l1,0l3,-1l3,0l1,0l1,-1l2,0l1,0l1,0l1,0l1,-1l2,0l2,-1l1,0l1,0l1,0l0,-1l2,-1l1,0l1,0l0,-1l1,0" stroke="black" id="e9243_freepath" style="fill: none; stroke-width: 1px;" class="psUAwhLC_8"></path><path d="M274,115l1,0l1,0l1,0l1,0l1,0l1,0l1,0l1,-1l0,-1l2,0l3,-1l1,0l1,-1l1,0l1,0l1,0l1,-1l1,0l1,0l1,0l2,-1l2,-1l1,0l1,0l1,-1l0,1l0,1l-1,1l0,1l-1,0l0,1l0,1l-1,0l0,1l0,1l-1,0l0,1l0,1l0,1l-1,0l0,1l-1,1l0,1l-1,1l0,1l-1,0l0,1l0,1l-1,2l0,1l-1,0l0,1l0,1l-1,0l0,1l-1,0l0,1l-1,1l0,1l-1,1l0,1l-1,1l0,1l-1,1l-1,1l0,1l0,1l-1,0l-1,2l-1,1l0,1l-1,0l-1,1l0,1l0,1l-1,0l-1,2l-1,0l0,1l-1,0l0,1l-1,0" stroke="black" id="e9397_freepath" style="fill: none; stroke-width: 1px;" class="psUAwhLC_9"></path><path d="M97,143l-1,0l-1,0l-1,0l-1,0l-1,0l-1,0l-1,0l-1,0l-1,0l-1,0l-1,0l-1,0l-1,0l0,-1l-1,0l-1,0l0,-1l-1,0l-1,0l-1,0l-1,0l-1,0l-1,0l-1,0l0,-1l-1,0l-1,0l-1,0l0,1l0,1l0,2l1,1l0,1l0,1l1,0l1,0l1,0l0,1l0,1l1,0l1,0" stroke="black" id="e9495_freepath" style="fill: none; stroke-width: 1px;" class="psUAwhLC_10"></path><path d="M136,117l1,0l0,1l0,1l0,1l0,1l0,1l0,1l0,1l0,1l0,1l0,1l0,1l0,1l0,1l0,1" stroke="black" id="e9552_freepath" style="fill: none; stroke-width: 1px;" class="psUAwhLC_11"></path><path d="M144,115l0,1l0,1l0,1l0,1l0,1l0,1l0,1l0,1l0,1l0,1l0,1l0,1l0,1l0,1l0,1l0,1" stroke="black" id="e9583_freepath" style="fill: none; stroke-width: 1px;" class="psUAwhLC_12"></path><path d="M183,101l0,1l0,1l0,1l0,1l0,1l1,1l0,1l0,1l0,1l0,1l0,1l0,1l0,1l0,1l-1,0l0,1l0,1l0,1l0,1l0,1l-1,1l0,1l0,1l0,1l-1,1l0,1l-1,0l1,0" stroke="black" id="e9615_freepath" style="fill: none; stroke-width: 1px;" class="psUAwhLC_13"></path><path d="M192,103l0,1l0,1l0,1l0,1l0,1l0,1l0,1l0,1l0,1l0,1l0,1l0,1l0,1l0,1l0,1l0,1l0,1l0,1l0,1l0,1l-1,0l0,1" stroke="black" id="e9659_freepath" style="fill: none; stroke-width: 1px;" class="psUAwhLC_14"></path><path d="M245,95l1,0l0,1l0,1l0,1l1,1l0,1l0,1l0,1l0,1l0,1l0,1l0,1l0,1l0,1l0,1l-1,0l0,1l0,1l0,1l0,1l0,1l-1,0l-1,0l1,0" stroke="black" id="e9697_freepath" style="fill: none; stroke-width: 1px;" class="psUAwhLC_15"></path><path d="M257,95l-1,0l0,1l0,1l0,1l0,1l0,1l0,1l0,1l0,1l0,1l0,1l0,1l0,1l0,1l0,1l0,1l-1,1l0,1l0,1l0,1l-1,0l0,1" stroke="black" id="e9737_freepath" style="fill: none; stroke-width: 1px;" class="psUAwhLC_16"></path><path d="M122,37l0,-1l0,-1l0,-1l0,-1l-1,-1l0,-1l0,-1l-1,-1l0,-1l0,-1l1,0l2,0l2,-1l1,0l1,0l1,0l1,0l1,0l0,1l0,1l0,1l0,1l0,1l0,1l0,1l0,1l0,1l0,1" stroke="black" id="e9775_freepath" style="fill: none; stroke-width: 1px;" class="psUAwhLC_17"></path><path d="M174,17l-1,0l-1,-1l0,-1l-1,-1l0,-1l-1,0l0,-1l0,-1l0,-1l0,-1l1,0l1,0l1,0l1,0l1,0l1,0l1,0l1,0l0,1l0,1l1,1l0,1l1,1l0,1l0,1l1,0l0,1l0,1" stroke="black" id="e9819_freepath" style="fill: none; stroke-width: 1px;" class="psUAwhLC_18"></path><path d="M231,27l-1,0l-2,-3l-1,-1l0,-1l0,-1l-1,0l1,0l1,0l1,0l1,0l1,0l1,0l1,0l1,0l0,1l1,0l1,0l0,1l1,0l1,1l1,0" stroke="black" id="e9863_freepath" style="fill: none; stroke-width: 1px;" class="psUAwhLC_19"></path><path d="M85,149l0,1l1,0l1,0l1,0l1,0l0,1l1,0l3,1l4,2l3,1l1,1l1,0l1,0l1,0l1,0l3,0l2,0l1,0l1,0l1,0l2,-1l1,0l1,0l1,0l1,-1l5,-1l2,0l1,0l1,0l1,0l2,-1l1,0l2,0l1,0l2,0l2,-1l3,0l2,-1l3,0l1,0l1,0l3,-1l1,0l1,0l1,0l1,-1l1,0l2,0l3,-1l2,0l2,0l1,0l1,0l1,0l2,0l1,0l0,-1l2,0l2,0l2,0l1,0l1,0l1,-1l1,0l1,0l0,-1l1,-1l1,0" stroke="black" id="e9900_freepath" style="fill: none; stroke-width: 1px;" class="psUAwhLC_20"></path><path d="M205,142l1,0l1,0l2,0l4,-1l4,0l4,0l3,0l2,0l1,0l1,0l1,0l2,0l0,-1l1,0l1,0l2,0l1,-1l1,0l1,0l0,-1l3,-1l2,0l1,-1l1,0l1,0l1,-1l1,0l3,-1l3,0l3,-1l1,0l1,0l1,0l0,-1l2,0l2,-1l2,-1l2,0l1,0l1,0l1,-1l3,-2l3,0l2,0l1,-1l1,0l0,-1l2,0l1,0l1,-1l1,0l0,-1l2,0l2,-1l2,-1l1,0l1,0l1,0l2,-1" stroke="black" id="e9984_freepath" style="fill: none; stroke-width: 1px;" class="psUAwhLC_21"></path><path d="M100,163l1,0l1,0l1,0l1,0l1,0l1,0l2,0l2,0l1,-1l1,0l1,0l1,0l1,0l1,0l2,-2l2,0l2,-1l1,0l2,0l3,-1l3,0l1,0l1,0l1,0l4,0l3,0l2,0l1,0l1,0l1,0l2,0l1,0l2,0l1,0l1,0l1,0l1,0l-1,0" stroke="black" id="e10059_freepath" style="fill: none; stroke-width: 1px;" class="psUAwhLC_22"></path><path d="M212,150l1,0l1,0l1,0l1,0l1,0l5,0l5,0l3,0l2,0l2,0l2,-1l1,0l1,0l1,0l1,-1l1,0l1,-1l1,0l1,-1l2,-1l1,-1l3,-1l1,-2l2,-1l2,0l1,-1l1,-1l3,-1l2,-1l3,0l1,0l1,0l2,-1l3,0l1,0l1,0l1,0l1,0l2,0l2,0l1,0l1,0l1,0l0,-1l1,0l1,0l2,-1l2,0l0,-1" stroke="black" id="e10113_freepath" style="fill: none; stroke-width: 1px;" class="psUAwhLC_23"></path><path d="M215,159l1,0l1,0l1,0l3,-1l4,0l4,-1l2,0l1,0l1,0l1,0l1,0l1,-1l1,0l1,0l1,0l2,0l3,-1l2,0l0,-1l1,0l2,0l3,-1l4,-1l3,0l2,0l2,0l0,-1l2,0l2,0l3,0l3,0l1,0l1,0l1,-1l2,0l0,-1l1,0l1,-2l1,0" stroke="black" id="e10178_freepath" style="fill: none; stroke-width: 1px;" class="psUAwhLC_24"></path><path d="M216,169l0,-1l0,-1l1,0l1,0l0,-1l1,0l1,0l1,0l1,0l1,-1l1,0l0,-1l2,0l1,0l1,0l1,0l1,0l1,0l3,0l4,1l5,1l2,1l2,1l1,0l1,0l1,0l1,-1l3,0l1,-1l1,0l0,-1l1,0l0,-1l1,0l0,-1" stroke="black" id="e10233_freepath" style="fill: none; stroke-width: 1px;" class="psUAwhLC_25"></path><path d="M805,149l1,0l0,-1l0,-1l1,-1l0,-1l0,-1l0,-1l1,0l0,-1l0,-1l0,-1l0,-1l1,-1l0,-1l0,-1l0,-1l1,0l0,-1l0,-1l0,-1l1,0l0,-1l0,-1l0,-1l1,0l0,-1l0,-1l1,0l0,-1l1,-1l0,-1l1,0l1,0l1,-1l1,0l1,-1l1,0l1,0l1,0l1,-1l1,0l1,-1l1,0l0,-1l1,0l1,0l1,0l1,0l1,0l1,0l1,0l1,0l0,-1l1,0l1,0l1,0l1,0l1,0l1,0l1,0l1,0l1,0l1,0l1,0l1,0l1,0l1,0l1,0l1,0l2,0l2,0l1,0l1,0l1,0l1,0l1,0l1,0l2,0l2,1l2,0l1,1l1,0l1,0l1,0l1,0l2,1l1,0l1,0l1,0l1,0l0,1l1,0l1,0l1,0l1,1l1,0l2,1l1,0l1,0l1,0l1,1l1,0l1,0l1,1l3,0l2,1l2,0l2,1l1,0l2,0l1,0l1,0l1,0l1,1l1,0l2,0l2,0l1,0l1,0l0,1l1,0l1,0l1,0l1,0l1,0l2,1l2,0l1,1l1,0l1,0l1,1l1,0l0,1l1,0l1,0l1,0l1,0l1,0l0,1l1,0l1,0l1,1l2,0l1,0l0,1l1,0l1,1l1,0l2,0l1,0l0,1l1,0l1,0l1,1l1,0l2,0l2,1l1,0l2,1l1,0l1,0l0,1l1,0l1,0l1,0l0,1l1,0l1,0l1,0l0,1l1,0l1,0l1,0l1,0l1,0" stroke="black" id="e11097_freepath" style="fill: none; stroke-width: 1px;" class="psUAwhLC_26"></path><path d="M1020,152l1,0l1,-1l1,-1l1,0l1,-1l1,-1l0,-1l1,0l0,-1l0,-1l0,-1l0,-1l0,-1l0,-1l0,-1l0,-1l0,-1l0,-1l0,-1l0,-1l-1,0l0,-1l-1,0l0,-1l-1,0l-1,0l-1,-1l-1,-1l0,-1l-1,0l0,-1l-1,-1l-1,-1l-1,-1l0,-1l0,-1l-1,0l0,-1l-1,-1l-1,-1l0,-1l0,-1l0,-1l0,-1l-1,0l0,-2l-1,0l0,-1l0,-1l-1,-1l0,-1l0,-1l-1,0l0,-1l0,-1l0,-1l0,-1l0,-1l0,-1l0,-1l0,-1l1,0l1,0l1,0l1,0l1,1l0,1l1,0l0,1l1,0l0,1l1,1l1,0l1,0l0,1l1,1l0,1l1,0l1,0l0,1l1,1l1,0l0,1l0,1l2,0l1,1l0,1l1,0l1,0l0,1l1,1l1,1l1,1l1,1l0,1l1,0l0,1l1,0l1,0l0,-1l1,0l0,-1l1,0l0,-1l1,0l1,0l0,-1l1,0l0,-1l1,0l0,-1l0,-1l1,0l1,-1l0,-1l1,0l0,-1l1,0l1,0l1,-1l1,0l1,-1l1,0l0,-1l1,0l1,0l0,-1l1,0l1,0l1,-1l1,-1l2,-1l1,0l0,-1l1,0l0,-1l0,1l0,1l0,1l0,1l0,1l0,1l0,1l-1,0l0,1l0,1l0,1l-1,1l0,2l-1,2l-1,1l0,1l-1,0l0,1l0,1l0,1l0,1l-1,0l0,1l0,1l-1,0l-1,2l-1,1l0,1l-1,0l0,1l-1,0l-1,0l-1,1l-1,1l-2,0l-1,0l-1,0l0,1l-1,0l-1,0l-1,0l-1,0l0,1l-1,0l0,1l0,1l1,1l0,1l0,1l1,0l0,1l0,1l0,1l1,0l0,1l0,1l0,1l1,1l0,1l1,0l0,1l0,1l0,1l0,1l0,1" stroke="black" id="e11288_freepath" style="fill: none; stroke-width: 1px;" class="psUAwhLC_27"></path><path d="M831,142l1,0l2,0l3,0l3,0l1,0l-1,0l-1,0l0,1l-1,0l0,1l-1,0l-1,0l-1,0l-1,0l0,-1l-1,0" stroke="black" id="e11505_freepath" style="fill: none; stroke-width: 1px;" class="psUAwhLC_28"></path><path d="M455,39l0,-1l0,-1l1,0l1,0l1,0l0,1l1,1l0,1l1,1l0,1l0,-1l1,0l0,-1l0,-1l1,0l1,0l1,0l3,0l1,-1l2,0l1,0l1,0l1,0l1,0l1,0l0,1l0,1l0,1l0,1l1,1l0,1l-1,0l0,1l-1,1l-1,0l-2,0l-2,0l-1,0l-2,-1l1,0l3,0l3,0l3,1l2,1l1,0l0,1l0,1l0,1l0,1l-1,0l0,1l-1,1l0,1l-1,1l-1,1l-1,1l-2,0l-1,0l-2,0l-2,0l-2,0l-2,0l0,1l-1,1l1,1l0,1l-1,1l-1,1l-1,0l-1,0l-1,1l-2,1l-2,0l-1,0l-1,0l0,-1l-1,-1l-1,-1l0,-1l0,-1l0,-1l0,-1l-1,0l-1,0l-1,0l0,1l-1,0l-1,0l-1,0l-2,0l-2,-2l-1,0l-1,0l-1,-1l-1,-1l-1,-2l0,-1l0,-1l1,-1l0,-1l0,-2l1,0l1,0l0,-1l-1,-1l0,-1l0,-1l0,-1l0,-1l2,-1l1,-1l1,-1l1,0l2,0l2,0l1,0l1,1l0,1l0,1l0,1l1,0l0,-2l0,-1l0,-1l1,0l0,-1l1,0l1,0l1,0l2,1l1,0l1,0l1,0" stroke="black" id="e12417_freepath" style="fill: none; stroke-width: 1px;" class="psUAwhLC_29"></path><path d="M687,61l0,-1l-1,0l-1,-1l-2,-1l-2,-1l0,-1l-1,0l0,-1l-1,-1l0,-1l0,-1l0,-1l0,-1l1,0l1,0l0,-1l0,-1l1,0l1,0l1,0l0,1l2,2l1,0l1,0l0,-1l0,-1l0,-1l1,1l1,-1l0,-1l0,-1l-1,-1l0,-1l0,-1l1,0l1,-1l2,0l2,0l1,0l1,0l1,0l1,0l0,1l1,0l0,1l1,0l0,1l-1,0l0,1l0,1l1,0l1,0l1,0l1,-1l2,0l1,0l0,1l2,0l1,0l1,0l1,1l0,1l0,1l0,1l0,1l0,1l1,0l1,0l1,0l2,0l3,0l2,0l0,1l1,0l0,1l0,1l0,1l1,2l-1,0l1,2l0,-1l1,2l-1,1l0,1l-1,0l0,1l-1,0l-1,0l-3,0l-4,-1l-2,-1l0,-1l0,1l0,1l1,1l0,1l0,1l0,1l-2,1l-3,1l-3,0l-5,1l-3,0l-1,0l-1,-1l0,-1l0,-1l-1,0l-1,0l0,1l-1,0l0,1l-1,1l-1,0l-1,0l-1,0l-1,0l-2,-1l-2,-1l0,-1l0,-1l-1,-1l0,-1l0,-1l-1,-1l0,-1l0,-1l1,0l1,0l1,0l0,-1" stroke="black" id="e12566_freepath" style="fill: none; stroke-width: 1px;" class="psUAwhLC_30"></path><path d="M23,24l1,0l0,-1l-1,-1l1,0l0,-2l0,-1l0,-1l0,-1l1,0l1,-2l1,0l1,0l1,0l1,0l2,0l2,0l1,0l0,1l1,0l0,2l0,1l0,1l0,1l-1,0l0,-1l1,0l0,-1l1,0l2,-1l3,0l1,0l1,0l1,0l1,1l1,1l0,1l2,0l0,1l-1,0l0,1l0,1l-1,0l-1,1l0,1l1,0l0,1l1,1l1,1l1,1l1,0l0,1l1,0l0,1l0,1l0,1l0,1l-1,0l-1,1l0,1l-1,0l-2,0l-1,0l0,1l-1,0l0,-1l0,-1l-1,-1l0,-1l0,-1l0,-1l-1,0l-1,-1l1,0l0,1l1,1l0,1l-1,1l-1,1l-1,1l-1,2l0,1l-1,0l-1,0l-1,0l-1,0l-1,0l-1,-1l0,-1l0,-1l0,-1l-1,0l-1,1l-1,2l-1,1l-2,0l0,1l-1,0l-1,0l0,-1l-3,-1l-3,-3l-1,0l0,-1l0,-1l-1,0l0,-1l-1,0l0,-1l1,0l0,-1l0,-1l0,-1l0,-1l0,-2l-1,0l-1,-1l0,-1l0,-1l-2,-2l0,-1l0,-1l1,0l1,0l1,0l1,0l1,0l0,1l1,0l1,0l2,0l1,2l1,0l1,0l1,0" stroke="black" id="e12713_freepath" style="fill: none; stroke-width: 1px;" class="psUAwhLC_31"></path><path d="M1031,19l-1,0l-1,0l-1,0l-1,0l-1,0l-1,-1l-1,0l-1,0l-2,0l-1,0l-1,0l-1,0l-2,0l-1,1l-3,1l-1,2l-1,1l0,1l0,1l0,1l0,1l0,1l-1,0l-1,0l-1,0l0,1l0,1l-1,0l0,1l0,1l0,1l0,1l0,1l1,3l1,0l0,1l0,1l1,0l1,0l0,-1l1,-1l1,0l0,1l1,1l0,1l1,0l1,0l1,0l1,0l1,0l1,0l1,0l1,0l1,0l1,0l1,1l2,3l2,2l1,0l1,-1l1,0l2,-1l1,0l0,-1l1,0l2,-1l1,-1l1,-1l1,0l1,-1l1,0l2,-1l1,0l0,-1l1,0l1,-1l0,1l0,1l1,0l1,0l1,0l2,0l1,-1l1,-2l0,-1l1,-1l0,-1l0,-1l0,-1l0,-1l-1,-1l0,-1l0,-1l-2,-1l-1,-1l-1,0l-1,-1l-1,0l-1,0l-1,0l0,-1l0,-1l0,-2l0,-1l0,-1l0,-1l-1,-1l-1,-1l-1,0l-1,-1l-1,0l-1,0l-1,0l-2,0l-2,0l-1,1l-1,0l0,1l0,1l-1,1l-1,2l-1,1l0,1l-1,0l-1,0" stroke="black" id="e12863_freepath" style="fill: none; stroke-width: 1px;" class="psUAwhLC_32"></path><style>.psUAwhLC_0{stroke-dasharray:2780 2782;stroke-dashoffset:2781;animation:psUAwhLC_draw_0 7200ms linear 0ms infinite,psUAwhLC_fade 7200ms linear 0ms infinite;}.psUAwhLC_1{stroke-dasharray:1405 1407;stroke-dashoffset:1406;animation:psUAwhLC_draw_1 7200ms linear 0ms infinite,psUAwhLC_fade 7200ms linear 0ms infinite;}.psUAwhLC_2{stroke-dasharray:339 341;stroke-dashoffset:340;animation:psUAwhLC_draw_2 7200ms linear 0ms infinite,psUAwhLC_fade 7200ms linear 0ms infinite;}.psUAwhLC_3{stroke-dasharray:74 76;stroke-dashoffset:75;animation:psUAwhLC_draw_3 7200ms linear 0ms infinite,psUAwhLC_fade 7200ms linear 0ms infinite;}.psUAwhLC_4{stroke-dasharray:265 267;stroke-dashoffset:266;animation:psUAwhLC_draw_4 7200ms linear 0ms infinite,psUAwhLC_fade 7200ms linear 0ms infinite;}.psUAwhLC_5{stroke-dasharray:25 27;stroke-dashoffset:26;animation:psUAwhLC_draw_5 7200ms linear 0ms infinite,psUAwhLC_fade 7200ms linear 0ms infinite;}.psUAwhLC_6{stroke-dasharray:79 81;stroke-dashoffset:80;animation:psUAwhLC_draw_6 7200ms linear 0ms infinite,psUAwhLC_fade 7200ms linear 0ms infinite;}.psUAwhLC_7{stroke-dasharray:198 200;stroke-dashoffset:199;animation:psUAwhLC_draw_7 7200ms linear 0ms infinite,psUAwhLC_fade 7200ms linear 0ms infinite;}.psUAwhLC_8{stroke-dasharray:198 200;stroke-dashoffset:199;animation:psUAwhLC_draw_8 7200ms linear 0ms infinite,psUAwhLC_fade 7200ms linear 0ms infinite;}.psUAwhLC_9{stroke-dasharray:98 100;stroke-dashoffset:99;animation:psUAwhLC_draw_9 7200ms linear 0ms infinite,psUAwhLC_fade 7200ms linear 0ms infinite;}.psUAwhLC_10{stroke-dasharray:43 45;stroke-dashoffset:44;animation:psUAwhLC_draw_10 7200ms linear 0ms infinite,psUAwhLC_fade 7200ms linear 0ms infinite;}.psUAwhLC_11{stroke-dasharray:15 17;stroke-dashoffset:16;animation:psUAwhLC_draw_11 7200ms linear 0ms infinite,psUAwhLC_fade 7200ms linear 0ms infinite;}.psUAwhLC_12{stroke-dasharray:16 18;stroke-dashoffset:17;animation:psUAwhLC_draw_12 7200ms linear 0ms infinite,psUAwhLC_fade 7200ms linear 0ms infinite;}.psUAwhLC_13{stroke-dasharray:30 32;stroke-dashoffset:31;animation:psUAwhLC_draw_13 7200ms linear 0ms infinite,psUAwhLC_fade 7200ms linear 0ms infinite;}.psUAwhLC_14{stroke-dasharray:22 24;stroke-dashoffset:23;animation:psUAwhLC_draw_14 7200ms linear 0ms infinite,psUAwhLC_fade 7200ms linear 0ms infinite;}.psUAwhLC_15{stroke-dasharray:25 27;stroke-dashoffset:26;animation:psUAwhLC_draw_15 7200ms linear 0ms infinite,psUAwhLC_fade 7200ms linear 0ms infinite;}.psUAwhLC_16{stroke-dasharray:23 25;stroke-dashoffset:24;animation:psUAwhLC_draw_16 7200ms linear 0ms infinite,psUAwhLC_fade 7200ms linear 0ms infinite;}.psUAwhLC_17{stroke-dasharray:32 34;stroke-dashoffset:33;animation:psUAwhLC_draw_17 7200ms linear 0ms infinite,psUAwhLC_fade 7200ms linear 0ms infinite;}.psUAwhLC_18{stroke-dasharray:30 32;stroke-dashoffset:31;animation:psUAwhLC_draw_18 7200ms linear 0ms infinite,psUAwhLC_fade 7200ms linear 0ms infinite;}.psUAwhLC_19{stroke-dasharray:25 27;stroke-dashoffset:26;animation:psUAwhLC_draw_19 7200ms linear 0ms infinite,psUAwhLC_fade 7200ms linear 0ms infinite;}.psUAwhLC_20{stroke-dasharray:109 111;stroke-dashoffset:110;animation:psUAwhLC_draw_20 7200ms linear 0ms infinite,psUAwhLC_fade 7200ms linear 0ms infinite;}.psUAwhLC_21{stroke-dasharray:102 104;stroke-dashoffset:103;animation:psUAwhLC_draw_21 7200ms linear 0ms infinite,psUAwhLC_fade 7200ms linear 0ms infinite;}.psUAwhLC_22{stroke-dasharray:58 60;stroke-dashoffset:59;animation:psUAwhLC_draw_22 7200ms linear 0ms infinite,psUAwhLC_fade 7200ms linear 0ms infinite;}.psUAwhLC_23{stroke-dasharray:85 87;stroke-dashoffset:86;animation:psUAwhLC_draw_23 7200ms linear 0ms infinite,psUAwhLC_fade 7200ms linear 0ms infinite;}.psUAwhLC_24{stroke-dasharray:72 74;stroke-dashoffset:73;animation:psUAwhLC_draw_24 7200ms linear 0ms infinite,psUAwhLC_fade 7200ms linear 0ms infinite;}.psUAwhLC_25{stroke-dasharray:51 53;stroke-dashoffset:52;animation:psUAwhLC_draw_25 7200ms linear 0ms infinite,psUAwhLC_fade 7200ms linear 0ms infinite;}.psUAwhLC_26{stroke-dasharray:206 208;stroke-dashoffset:207;animation:psUAwhLC_draw_26 7200ms linear 0ms infinite,psUAwhLC_fade 7200ms linear 0ms infinite;}.psUAwhLC_27{stroke-dasharray:223 225;stroke-dashoffset:224;animation:psUAwhLC_draw_27 7200ms linear 0ms infinite,psUAwhLC_fade 7200ms linear 0ms infinite;}.psUAwhLC_28{stroke-dasharray:21 23;stroke-dashoffset:22;animation:psUAwhLC_draw_28 7200ms linear 0ms infinite,psUAwhLC_fade 7200ms linear 0ms infinite;}.psUAwhLC_29{stroke-dasharray:174 176;stroke-dashoffset:175;animation:psUAwhLC_draw_29 7200ms linear 0ms infinite,psUAwhLC_fade 7200ms linear 0ms infinite;}.psUAwhLC_30{stroke-dasharray:174 176;stroke-dashoffset:175;animation:psUAwhLC_draw_30 7200ms linear 0ms infinite,psUAwhLC_fade 7200ms linear 0ms infinite;}.psUAwhLC_31{stroke-dasharray:166 168;stroke-dashoffset:167;animation:psUAwhLC_draw_31 7200ms linear 0ms infinite,psUAwhLC_fade 7200ms linear 0ms infinite;}.psUAwhLC_32{stroke-dasharray:158 160;stroke-dashoffset:159;animation:psUAwhLC_draw_32 7200ms linear 0ms infinite,psUAwhLC_fade 7200ms linear 0ms infinite;}@keyframes psUAwhLC_draw{100%{stroke-dashoffset:0;}}@keyframes psUAwhLC_fade{0%{stroke-opacity:1;}94.44444444444444%{stroke-opacity:1;}100%{stroke-opacity:0;}}@keyframes psUAwhLC_draw_0{11.11111111111111%{stroke-dashoffset: 2781}38.88888888888889%{ stroke-dashoffset: 0;}100%{ stroke-dashoffset: 0;}}@keyframes psUAwhLC_draw_1{11.54513888888889%{stroke-dashoffset: 1406}39.32291666666667%{ stroke-dashoffset: 0;}100%{ stroke-dashoffset: 0;}}@keyframes psUAwhLC_draw_2{11.979166666666668%{stroke-dashoffset: 340}39.75694444444444%{ stroke-dashoffset: 0;}100%{ stroke-dashoffset: 0;}}@keyframes psUAwhLC_draw_3{12.413194444444445%{stroke-dashoffset: 75}40.19097222222222%{ stroke-dashoffset: 0;}100%{ stroke-dashoffset: 0;}}@keyframes psUAwhLC_draw_4{12.847222222222221%{stroke-dashoffset: 266}40.625%{ stroke-dashoffset: 0;}100%{ stroke-dashoffset: 0;}}@keyframes psUAwhLC_draw_5{13.28125%{stroke-dashoffset: 26}41.05902777777778%{ stroke-dashoffset: 0;}100%{ stroke-dashoffset: 0;}}@keyframes psUAwhLC_draw_6{13.715277777777779%{stroke-dashoffset: 80}41.49305555555556%{ stroke-dashoffset: 0;}100%{ stroke-dashoffset: 0;}}@keyframes psUAwhLC_draw_7{14.149305555555555%{stroke-dashoffset: 199}41.92708333333333%{ stroke-dashoffset: 0;}100%{ stroke-dashoffset: 0;}}@keyframes psUAwhLC_draw_8{14.583333333333334%{stroke-dashoffset: 199}42.36111111111111%{ stroke-dashoffset: 0;}100%{ stroke-dashoffset: 0;}}@keyframes psUAwhLC_draw_9{15.01736111111111%{stroke-dashoffset: 99}42.79513888888889%{ stroke-dashoffset: 0;}100%{ stroke-dashoffset: 0;}}@keyframes psUAwhLC_draw_10{15.45138888888889%{stroke-dashoffset: 44}43.22916666666667%{ stroke-dashoffset: 0;}100%{ stroke-dashoffset: 0;}}@keyframes psUAwhLC_draw_11{15.885416666666666%{stroke-dashoffset: 16}43.66319444444444%{ stroke-dashoffset: 0;}100%{ stroke-dashoffset: 0;}}@keyframes psUAwhLC_draw_12{16.319444444444446%{stroke-dashoffset: 17}44.09722222222222%{ stroke-dashoffset: 0;}100%{ stroke-dashoffset: 0;}}@keyframes psUAwhLC_draw_13{16.75347222222222%{stroke-dashoffset: 31}44.53125%{ stroke-dashoffset: 0;}100%{ stroke-dashoffset: 0;}}@keyframes psUAwhLC_draw_14{17.1875%{stroke-dashoffset: 23}44.96527777777778%{ stroke-dashoffset: 0;}100%{ stroke-dashoffset: 0;}}@keyframes psUAwhLC_draw_15{17.62152777777778%{stroke-dashoffset: 26}45.39930555555556%{ stroke-dashoffset: 0;}100%{ stroke-dashoffset: 0;}}@keyframes psUAwhLC_draw_16{18.055555555555554%{stroke-dashoffset: 24}45.83333333333333%{ stroke-dashoffset: 0;}100%{ stroke-dashoffset: 0;}}@keyframes psUAwhLC_draw_17{18.489583333333336%{stroke-dashoffset: 33}46.26736111111111%{ stroke-dashoffset: 0;}100%{ stroke-dashoffset: 0;}}@keyframes psUAwhLC_draw_18{18.92361111111111%{stroke-dashoffset: 31}46.70138888888889%{ stroke-dashoffset: 0;}100%{ stroke-dashoffset: 0;}}@keyframes psUAwhLC_draw_19{19.35763888888889%{stroke-dashoffset: 26}47.13541666666667%{ stroke-dashoffset: 0;}100%{ stroke-dashoffset: 0;}}@keyframes psUAwhLC_draw_20{19.791666666666664%{stroke-dashoffset: 110}47.56944444444444%{ stroke-dashoffset: 0;}100%{ stroke-dashoffset: 0;}}@keyframes psUAwhLC_draw_21{20.225694444444446%{stroke-dashoffset: 103}48.00347222222222%{ stroke-dashoffset: 0;}100%{ stroke-dashoffset: 0;}}@keyframes psUAwhLC_draw_22{20.65972222222222%{stroke-dashoffset: 59}48.4375%{ stroke-dashoffset: 0;}100%{ stroke-dashoffset: 0;}}@keyframes psUAwhLC_draw_23{21.09375%{stroke-dashoffset: 86}48.87152777777778%{ stroke-dashoffset: 0;}100%{ stroke-dashoffset: 0;}}@keyframes psUAwhLC_draw_24{21.52777777777778%{stroke-dashoffset: 73}49.30555555555556%{ stroke-dashoffset: 0;}100%{ stroke-dashoffset: 0;}}@keyframes psUAwhLC_draw_25{21.961805555555554%{stroke-dashoffset: 52}49.73958333333333%{ stroke-dashoffset: 0;}100%{ stroke-dashoffset: 0;}}@keyframes psUAwhLC_draw_26{22.395833333333336%{stroke-dashoffset: 207}50.173611111111114%{ stroke-dashoffset: 0;}100%{ stroke-dashoffset: 0;}}@keyframes psUAwhLC_draw_27{22.82986111111111%{stroke-dashoffset: 224}50.607638888888886%{ stroke-dashoffset: 0;}100%{ stroke-dashoffset: 0;}}@keyframes psUAwhLC_draw_28{23.26388888888889%{stroke-dashoffset: 22}51.041666666666664%{ stroke-dashoffset: 0;}100%{ stroke-dashoffset: 0;}}@keyframes psUAwhLC_draw_29{23.697916666666664%{stroke-dashoffset: 175}51.47569444444444%{ stroke-dashoffset: 0;}100%{ stroke-dashoffset: 0;}}@keyframes psUAwhLC_draw_30{24.131944444444446%{stroke-dashoffset: 175}51.90972222222222%{ stroke-dashoffset: 0;}100%{ stroke-dashoffset: 0;}}@keyframes psUAwhLC_draw_31{24.56597222222222%{stroke-dashoffset: 167}52.34375%{ stroke-dashoffset: 0;}100%{ stroke-dashoffset: 0;}}@keyframes psUAwhLC_draw_32{25%{stroke-dashoffset: 159}52.77777777777778%{ stroke-dashoffset: 0;}100%{ stroke-dashoffset: 0;}}</style></svg>