<!--?xml version="1.0" encoding="utf-8"?-->
<svg viewBox="0 0 1000 200" xmlns="http://www.w3.org/2000/svg">
  <path d="M 51.46 85.154 C 48.426 85.154 44.878 90.581 43.185 91.975 C 37.59 96.589 24.205 112.979 32.154 126.081 C 45.843 148.653 75.396 162.928 110.761 155.64 C 127.096 152.273 141.293 146.113 156.271 141.998 C 164.627 139.701 171.46 130.623 179.714 128.355 C 194.983 124.159 215.866 114.468 226.603 105.618 C 227.525 104.858 231.762 105.554 233.497 104.481 C 246.223 96.613 261.28 94.166 274.87 88.565 C 280.646 86.185 287.061 88.307 292.798 85.154 C 295.401 83.724 307.185 85.154 310.726 85.154 C 328.361 85.154 337.4 88.191 352.098 94.249 C 354.724 95.332 363.431 98.403 364.511 101.07 C 367.326 108.034 374.163 111.994 374.163 121.534 C 374.163 140.255 368.58 144.327 357.614 153.366 C 355.553 155.066 347.057 156.641 345.203 158.17 C 343.65 159.451 325.778 157.297 321.759 155.64 C 297.346 145.577 290.394 111.01 306.588 97.66 C 321.931 85.012 342.531 80.607 371.405 80.607 C 375.159 80.607 392.442 78.622 394.849 80.607 C 397.86 83.088 402.135 80.511 404.261 84.017 C 404.467 84.357 410.019 84.897 410.019 85.154 C 410.019 86.077 430.058 96.256 433.464 97.66 C 446.147 102.888 460.056 107.076 467.94 113.576 C 474.321 118.836 486.11 122.202 495.522 126.081 C 498.295 127.224 506.555 128.827 506.555 130.629 C 507.934 130.629 526.189 141.13 527.241 141.998 C 530.42 144.618 541.536 144.48 546.548 146.545 C 561.667 152.777 583.667 152.229 601.711 152.229 C 606.651 152.229 614.982 153.509 619.639 152.229 C 634.895 148.037 651.352 148.821 665.148 143.134 C 716.354 122.028 781.62 99.235 844.427 86.291 C 870.993 80.816 914.345 71.909 940.962 82.88 C 965.159 92.854 974.061 104.168 974.061 126.081 C 974.061 127.488 975.648 138.415 974.061 139.724 C 965.749 146.576 961.018 156.777 943.721 156.777 C 938.334 156.777 923.767 150.826 918.897 148.819 C 910.742 145.457 910.623 137.234 910.623 129.492 C 910.623 128.882 910.623 119.26 910.623 119.26" style="stroke: black; fill: none; stroke-width: 5; stroke-linecap: round;" class="jZZrgNKz_0"></path>
<style>.jZZrgNKz_0{stroke-dasharray:1413 1415;stroke-dashoffset:1414;animation:jZZrgNKz_draw_0 8200ms linear 0ms infinite,jZZrgNKz_fade 8200ms linear 0ms infinite;}@keyframes jZZrgNKz_draw{100%{stroke-dashoffset:0;}}@keyframes jZZrgNKz_fade{0%{stroke-opacity:1;}95.1219512195122%{stroke-opacity:1;}100%{stroke-opacity:0;}}@keyframes jZZrgNKz_draw_0{9.75609756097561%{stroke-dashoffset: 1414}34.146341463414636%{ stroke-dashoffset: 0;}100%{ stroke-dashoffset: 0;}}</style></svg>