<svg xmlns="http://www.w3.org/2000/svg" xmlns:xlink="http://www.w3.org/1999/xlink" width="1190px" height="670px" viewBox="0 0 1190 670" preserveAspectRatio="xMidYMid meet"><path id="svgEditorBackground" width="1190" height="670" style="fill: none; stroke: none;" d="M0 0 L1190 0 L1190 670 L0 670 Z" class="VonHrKJa_0"></path><path d="M48,436l0,-1l2,-1l2,-1l3,-2l4,-1l3,-1l3,-1l2,0l2,0l3,0l2,0l4,0l3,0l4,2l4,2l3,3l4,1l4,2l5,1l5,1l6,1l6,1l6,0l7,0l6,0l8,0l5,0l6,-1l5,-2l5,-3l4,-2l6,-3l6,-1l7,-2l5,-1l8,0l9,0l8,0l8,0l9,0l8,1l6,3l6,2l5,3l4,3l4,3l4,4l4,3l5,2l6,1l8,0l10,0l9,0l11,0l10,-2l11,-3l8,-2l8,-1l8,0l5,0l8,-1l8,0l7,0l7,3l8,5l5,4l10,5l4,1l2,1l1,0l2,0l3,-1l3,0l4,0l4,-1l4,-1l3,0l4,-1l3,-1l4,-1l5,-3l4,-2l4,-2l5,-2l4,-1l3,-2l3,-1l2,-1l5,-1l6,0l7,0l8,0l7,0l6,2l6,3l6,3l4,2l4,1l3,0l3,0l6,0l4,0l6,-3l7,-3l8,-4l9,-4l9,-4l10,-4l11,-2l11,-2l11,-1l9,0l9,0l10,0l9,3l10,3l7,4l8,2l7,2l8,0l8,0l7,0l3,-1l1,-2l2,0l6,0l5,0l6,0l8,0l5,0l5,0l5,0l3,2l4,1l2,1l2,1l4,2l2,0l3,0l4,0l6,-2l8,-4l8,-5l8,-5l6,-3l5,-2l5,-2l3,-1l3,-1l5,0l11,0l7,2l8,2l8,1l11,1l11,1l13,0l10,-3l11,-4l9,-4l6,-2l5,-3l4,-2l3,-1l1,0l2,0l1,-1l2,0l1,-1l1,0l3,0l8,2l6,3l5,1l5,2l9,2l5,1l5,0l4,0l5,0l7,0l4,0l3,-1l4,-2l2,-1l1,0l2,-1l2,-1l2,-2l4,-1l3,-1l4,-1l3,0l5,0l2,0l4,0l2,0l2,1l2,1l1,1l1,0l2,1l2,0l3,0l3,0l4,0l3,-1l4,-2l2,0l1,-1l1,0l0,1l-1,1l-1,1l-1,1l-1,3l-1,3l-2,2l-1,3l-1,1l-1,1l0,1l0,1l0,-1l0,-1l0,-1l1,-2l1,-2l1,-1l0,-1l1,-1l0,-1l1,-1l2,-1l0,-2l1,0l0,-1l0,-1l0,-1l0,-1l1,-1l0,-1l-1,0l-1,0l-1,0l-1,0l0,-1l-1,0l-1,-1l-1,-1l0,-1l-1,-1l-1,-1l-1,0l0,-1l-1,-1l0,-2l-1,0l0,-1l-1,0l-1,-1l-1,-1l0,-1l-1,0l1,0l1,0l1,0l0,1l1,1l2,1l0,2l1,1l1,1l1,2l1,0l1,2l1,0l0,1l1,0l0,1l1,0l1,0l0,1l1,0l0,1l1,0l0,1l1,1l0,1l1,0l0,1" stroke="black" id="e1_freepath" style="fill: none; stroke-width: 1px;" class="VonHrKJa_1"></path><style>.VonHrKJa_0{stroke-dasharray:3720 3722;stroke-dashoffset:3721;animation:VonHrKJa_draw_0 7200ms linear 0ms infinite,VonHrKJa_fade 7200ms linear 0ms infinite;}.VonHrKJa_1{stroke-dasharray:1261 1263;stroke-dashoffset:1262;animation:VonHrKJa_draw_1 7200ms linear 0ms infinite,VonHrKJa_fade 7200ms linear 0ms infinite;}@keyframes VonHrKJa_draw{100%{stroke-dashoffset:0;}}@keyframes VonHrKJa_fade{0%{stroke-opacity:1;}94.44444444444444%{stroke-opacity:1;}100%{stroke-opacity:0;}}@keyframes VonHrKJa_draw_0{11.11111111111111%{stroke-dashoffset: 3721}38.88888888888889%{ stroke-dashoffset: 0;}100%{ stroke-dashoffset: 0;}}@keyframes VonHrKJa_draw_1{25%{stroke-dashoffset: 1262}52.77777777777778%{ stroke-dashoffset: 0;}100%{ stroke-dashoffset: 0;}}</style></svg>